<?xml version="1.0" standalone="no"?>
<!DOCTYPE svg PUBLIC "-//W3C//DTD SVG 20010904//EN"
 "http://www.w3.org/TR/2001/REC-SVG-20010904/DTD/svg10.dtd">
<svg version="1.0" xmlns="http://www.w3.org/2000/svg"
 width="512.000000pt" height="512.000000pt" viewBox="0 0 512.000000 512.000000"
 preserveAspectRatio="xMidYMid meet">
<metadata>
Created by potrace 1.15, written by Peter Selinger 2001-2017
</metadata>
<g transform="translate(0.000000,512.000000) scale(0.100000,-0.100000)"
fill="#000000" stroke="none">
<path d="M1070 4709 c-229 -45 -359 -246 -309 -481 20 -93 93 -215 161 -267
l27 -21 54 93 c91 154 172 255 328 409 l149 147 -33 25 c-53 41 -157 84 -227
95 -74 12 -88 12 -150 0z"/>
<path d="M3950 4709 c-69 -11 -206 -78 -245 -119 l-30 -31 88 -81 c151 -139
329 -371 396 -516 14 -28 28 -52 31 -52 22 0 115 90 153 148 60 92 78 143 84
238 18 269 -202 460 -477 413z"/>
<path d="M1710 3945 l-25 -14 35 -1 35 -1 -30 -13 c-42 -19 -70 -53 -89 -109
-30 -90 -11 -189 48 -246 98 -95 227 -4 227 162 0 98 -33 165 -96 193 l-30 13
35 1 35 1 -25 14 c-14 8 -41 14 -60 14 -19 0 -46 -6 -60 -14z m44 -100 c42
-42 21 -155 -28 -155 -38 0 -60 40 -54 95 8 70 45 97 82 60z"/>
<path d="M3286 3941 c-16 -11 -38 -33 -48 -50 -18 -28 -18 -30 -3 -25 16 6 15
4 -1 -27 -28 -51 -26 -180 3 -235 26 -48 77 -84 120 -84 41 0 92 37 117 85 28
53 30 183 3 235 -11 21 -14 36 -8 38 16 5 -18 51 -50 68 -39 20 -98 17 -133
-5z"/>
<path d="M2393 3585 c-329 -60 -586 -260 -679 -530 -24 -69 -27 -96 -27 -190
0 -93 4 -122 27 -190 95 -277 363 -480 708 -535 109 -18 329 -8 438 19 101 26
249 94 335 155 118 85 223 219 265 339 49 139 49 284 1 422 -89 252 -358 454
-680 510 -101 18 -290 18 -388 0z"/>
<path d="M3485 1980 c-515 -249 -1288 -253 -1829 -11 l-65 30 -39 -47 c-103
-125 -214 -309 -262 -434 -17 -43 -30 -80 -30 -83 0 -3 15 5 33 18 136 103
326 133 482 78 77 -27 182 -99 241 -164 93 -103 167 -261 193 -411 27 -151 6
-362 -51 -509 -16 -43 -28 -80 -26 -82 12 -13 302 -35 455 -35 158 0 362 13
400 25 8 3 1 30 -22 87 -97 238 -84 549 31 768 137 262 396 398 637 335 104
-27 230 -106 289 -180 11 -15 22 -24 24 -22 8 8 -48 163 -91 255 -25 51 -73
137 -108 190 -64 97 -162 226 -175 229 -4 0 -43 -16 -87 -37z"/>
<path d="M1411 1254 c-71 -19 -110 -44 -165 -105 -96 -107 -140 -242 -140
-424 0 -104 4 -131 27 -198 47 -136 124 -234 222 -285 74 -38 178 -38 257 1
104 51 195 176 234 322 21 79 21 248 -1 339 -34 151 -121 273 -228 325 -78 38
-136 45 -206 25z"/>
<path d="M3569 1256 c-139 -37 -248 -165 -294 -346 -23 -89 -23 -265 -1 -349
39 -144 129 -267 235 -318 47 -23 69 -28 131 -27 94 0 153 28 228 108 161 170
196 477 82 712 -57 116 -141 192 -247 219 -67 18 -73 18 -134 1z"/>
</g>
</svg>
